
<svg width="640px" height="381px" viewBox="0 0 640 381" version="1.1" xmlns="http://www.w3.org/2000/svg" xmlns:xlink="http://www.w3.org/1999/xlink">
    <g id="Page-1" stroke="none" stroke-width="1" fill="none" fill-rule="evenodd">
        <g id="page" transform="translate(-634.000000, -1348.000000)" fill="#FFFFFF">
            <g id="massage-white" transform="translate(634.000000, 1348.189654)">
                <path d="M637.320762,254.761175 C637.052328,252.928484 637.39419,251.830073 636.927139,249.920945 L631.669213,230.393911 C630.736918,227.754716 631.321934,225.370112 628.363749,224.323462 L629.96472,238.060517 C630.348712,239.376804 630.73451,239.482131 630.862708,241.734325 C631.577127,254.241762 630.84706,264.717891 625.408573,275.525651 C622.872297,280.566303 621.359801,283.592499 617.654094,287.297604 C616.056734,288.894362 614.379927,290.926874 612.848171,292.254596 C611.158725,293.718341 611.047981,293.362035 609.528262,294.122195 C598.585684,299.595591 603.179148,296.981675 594.506217,298.716863 C592.479123,299.122522 593.398176,299.392761 591.003942,299.738234 C582.526619,300.960028 578.186542,298.545932 572.801621,298.576627 C567.913242,298.604313 564.415181,296.900422 560.099179,296.104752 L556.61195,296.514022 C557.49429,297.133345 565.210249,300.262462 566.117868,300.562192 C569.590651,301.709355 572.517539,302.638038 575.942173,303.797238 C581.983131,305.841184 592.305784,307.722627 599.807478,305.932067 C628.429353,299.099651 625.299634,286.477859 630.823587,284.061355 C630.969239,287.533537 631.039056,287.483582 630.066436,290.563947 C629.328545,292.902207 629.677629,294.143261 628.954784,296.650045 C624.838001,310.92156 627.170845,304.948613 620.431719,315.516829 C617.184636,320.608639 612.949887,322.23188 609.48553,325.41697 C608.198734,326.600244 607.911643,327.3267 606.124694,328.507566 C594.627193,336.105559 587.971125,337.526572 574.082398,337.640325 C565.544287,337.710142 558.850301,335.017982 552.044969,331.537976 L544.163496,325.781702 C524.386687,307.062978 533.270272,310.942625 509.126302,295.600987 C507.920758,294.834808 509.697475,295.080973 507.081151,294.673507 C506.825959,298.523663 509.397744,297.888691 511.85999,300.060234 C514.541918,302.425579 516.844668,306.087349 518.934959,308.655523 L525.258193,317.294749 C527.377975,320.173488 526.994585,320.848785 529.598871,323.409737 L539.681379,333.52294 C541.853524,335.886479 542.798458,335.628277 545.468348,337.538609 C554.918291,344.296995 561.696539,343.977402 568.593956,345.710183 C583.239232,349.387602 596.031955,342.990939 608.728379,337.575925 C608.615227,340.399292 607.038331,340.885 605.242956,342.653291 C602.316068,345.536243 600.240824,348.626237 596.570025,350.884449 C590.574208,354.573304 591.715351,355.231748 580.971991,360.671439 L571.724276,364.506548 C566.642095,366.864068 561.360696,367.790946 555.676044,369.355805 L541.393094,372.000417 C535.417138,373.784958 527.433949,372.221905 521.045713,373.214989 L518.868753,373.578517 C515.336385,374.250203 513.326143,374.074457 511.000521,372.63238 L516.57804,365.446667 C519.459788,363.520687 518.300589,365.783714 520.035777,362.351857 C520.623201,361.19025 521.614479,359.163758 522.096576,357.90525 C525.576582,348.815826 525.194997,346.02496 525.17333,335.578322 C525.164302,331.377879 523.605461,328.771185 522.579877,325.200899 L519.168484,318.87947 C516.857909,315.615535 508.860276,304.764441 504.608072,305.227278 C504.417279,308.040413 505.558423,307.847815 507.191895,309.978431 C510.223509,313.931506 512.733302,320.153626 514.345107,324.974596 C514.860908,326.517788 515.575928,329.935801 515.902141,331.261117 C519.074592,344.125462 518.199475,344.676172 514.09834,355.760189 C512.997522,358.735227 514.507009,359.149313 512.46547,361.319652 C510.347494,363.57004 510.326428,361.445443 508.435958,364.484881 C507.012538,366.773788 507.569869,367.031388 505.421197,369.254691 C503.498828,371.243266 498.710359,374.082282 495.924308,374.270065 C492.650141,374.489747 484.077121,373.434671 482.297394,374.720263 C484.280552,375.932427 486.796966,376.009466 489.067817,376.914677 C493.26164,378.586668 491.530063,378.308605 495.22614,376.447024 C497.893021,378.142489 497.568012,380.425378 502.564727,378.812971 C510.112163,376.378411 506.601462,378.779868 509.341169,380.208705 C511.065523,381.108499 511.979762,380.254447 513.375496,380.013098 C515.308699,379.678459 513.748655,380.093748 516.7261,380.441026 C519.468816,380.760619 523.619906,380.527695 526.508877,380.529501 C540.370519,380.539131 549.61703,379.513546 562.970695,376.643836 C566.672791,375.848165 574.689684,373.222211 578.092049,371.621842 L592.139067,365.433426 C593.845967,364.606458 594.321443,364.128574 595.306703,363.382257 C608.163826,353.649435 596.978092,363.989542 613.972462,347.482085 L620.964975,338.806747 C628.876541,326.313754 635.314131,315.215894 637.29127,299.786985 C637.775173,296.009656 638.59251,296.254617 638.534731,291.317487 C638.469729,285.717698 639.132989,286.219657 639.757127,282.089633 C640.724932,275.683942 638.483572,271.063395 638.547972,263.268591 C638.58589,258.747352 637.858832,258.433177 637.321363,254.762378 L637.320762,254.761175 Z" id="Path"></path>
                <path d="M220.199748,358.370218 C229.96808,358.396977 225.776665,357.799923 229.992155,357.166757 C233.422205,356.650955 245.818899,357.371392 250.854134,357.06143 C255.410281,356.780959 251.985647,355.85047 259.981475,355.761393 C263.883993,355.717457 263.383238,354.971139 269.690824,354.389132 C275.387513,353.8637 288.358389,349.061389 292.731569,346.254874 C299.107166,342.162166 298.845954,341.825119 304.414445,336.415522 C307.69764,333.226218 317.467176,315.385019 319.383526,309.012432 C320.816576,304.246232 324.156948,299.97537 325.886118,294.652442 L338.982183,265.357678 C346.157663,251.248668 352.131814,236.694275 361.730419,224.271701 C364.251046,221.010173 374.497863,211.731161 378.697704,209.335723 C380.860219,208.101892 382.147015,206.911997 385.315253,205.519874 C386.276437,205.097362 387.746201,204.680267 389.168417,204.134372 C390.324607,203.690795 391.547605,202.813872 392.675507,202.38835 C396.026111,201.126231 398.903646,202.695303 398.487755,198.393747 L383.459691,201.67333 C369.668467,206.42689 368.612187,209.310444 360.292554,215.017365 C357.448122,216.969226 358.385231,217.75647 356.349711,220.21691 C353.210965,224.009888 352.017459,224.377028 348.68792,230.827257 C347.236814,233.637984 346.574758,233.695764 345.173608,236.433063 L332.976735,260.72088 C330.97191,264.351353 330.678799,266.756421 327.355881,273.352904 C323.240302,281.521469 319.190326,289.378867 315.096414,297.561274 C313.862583,300.027131 313.036819,304.805368 309.397318,310.116861 C307.997973,312.1584 307.431614,313.203846 306.08403,315.950776 C304.852004,318.462375 303.796326,319.744356 302.627497,321.611955 C298.469185,328.261402 291.137218,335.879858 283.808862,339.18472 C277.914159,341.843175 260.669411,345.429712 253.437355,345.428508 C246.209512,345.427304 248.132483,346.738175 243.009977,346.737573 L205.823508,346.777296 C202.58124,347.08124 204.026929,347.636163 201.94025,347.259995 C195.240848,346.053248 128.355159,346.736369 117.879029,346.734564 C106.287035,346.732156 111.620797,345.977412 106.773947,345.46462 L93.7651527,345.441147 C79.428636,345.37434 84.844854,344.715293 79.4141911,344.147731 C77.1758407,343.914206 73.9143133,344.168195 71.59772,344.245234 C63.2185014,344.523899 69.2859416,342.676764 57.9214534,343.125758 C50.505827,343.418868 55.343649,341.823915 44.0218935,341.53562 C40.0916898,341.436312 33.9478122,338.538313 31.0750921,341.108293 L66.405999,346.555808 C69.7975302,346.91693 68.1309552,347.406851 71.0506212,347.801677 C76.3560953,348.519707 72.7388634,346.783917 81.7362012,348.921153 C83.7470452,349.398435 85.2667641,349.02949 87.2721912,349.231718 C90.0919469,349.515198 89.29748,349.858865 91.9360731,350.4499 L112.665039,353.161921 C117.113452,353.187802 118.282883,354.471588 123.744242,354.459551 L133.246547,354.828496 C139.753352,356.505905 143.912266,355.748754 151.767858,355.7638 C156.535864,355.774634 156.281875,356.509516 159.677017,356.977168 L203.908963,357.060828 C210.066684,357.025318 213.343258,358.357855 220.198544,358.370218 L220.199748,358.370218 Z" id="Path"></path>
                <path d="M57.0246688,273.65745 C60.8399156,272.385099 67.5038079,268.155766 71.6055443,265.905379 L87.5755331,254.490935 C89.0043698,253.536973 89.7157788,252.566761 90.9339614,251.322096 L104.707731,237.710831 C105.765214,236.959097 106.29185,236.729183 107.058631,236.17426 L123.65998,225.432706 C128.594703,222.451048 140.265542,212.5166 144.324546,208.254766 C146.597203,205.868958 149.377837,204.404009 151.811795,202.061536 C153.885233,200.065738 154.215057,200.703117 156.089277,199.166546 C157.195512,198.25953 158.235541,197.005837 159.344786,195.901408 C161.651749,193.601667 164.145292,191.459615 166.238592,189.109919 L171.967782,181.130341 C173.766166,178.182388 175.884744,175.980149 177.382796,172.836588 C180.435475,166.430296 183.418337,159.29514 185.492377,152.9701 L193.281764,133.384685 C194.14665,131.418981 193.931783,130.465621 195.186077,128.099073 C196.580006,125.468906 196.085871,126.444535 197.00312,123.411718 C198.164727,119.571794 199.623657,117.054779 200.767208,113.483891 C203.254732,105.721588 211.695943,79.6955737 215.159698,72.4484705 C216.519922,69.6022326 217.698983,65.3464178 218.68364,62.329851 L229.597931,32.1695996 C230.651201,28.7034367 231.90369,25.2565336 233.027981,21.9257912 L235.807412,10.8833029 L232.847421,7.79270622 C229.608162,8.19475463 229.304219,9.24922891 228.045711,11.768652 L223.118812,23.0855926 C219.542507,34.0510417 200.480718,93.9171335 197.190903,100.812143 C196.181569,102.927712 196.067213,105.034254 194.738287,106.800137 C193.236022,108.79473 156.063998,118.729178 152.208426,119.687955 L132.616993,124.221232 C130.084328,124.859814 128.351548,124.949493 126.088521,125.514648 C123.619053,126.132165 121.257921,126.366894 119.101425,126.982004 C111.693623,129.095166 109.094753,127.233585 100.283994,131.863161 C95.8361835,129.011506 98.0342086,130.976006 89.3185454,131.888439 C87.0699632,132.12377 86.630599,132.917033 84.0064507,133.137919 C81.6146237,133.338943 79.7133199,132.743093 78.3205954,133.583302 C80.222501,137.171042 83.4226378,134.843013 86.5836532,134.640184 C86.7329167,134.630554 86.9188942,134.608285 87.0687595,134.598053 L92.1364955,134.892969 C95.0098175,135.490624 93.9691862,134.495133 97.6634574,134.069612 L106.416436,133.893264 C108.257553,134.27184 110.506737,133.556218 111.663529,133.233014 C114.322586,132.490308 117.035209,132.950738 119.873623,132.874902 L134.862565,130.375341 C149.899056,128.167084 163.969546,125.514046 178.307267,121.03253 C180.712937,120.280796 189.654301,117.160106 191.49301,117.313582 C191.470741,120.191719 189.013912,126.653384 188.078608,129.470732 C185.491775,137.261925 183.757791,145.317939 179.803513,152.4868 L166.332483,178.151091 C165.188933,179.805628 164.460671,181.306087 163.14318,182.76261 C161.897913,184.139084 160.411297,185.143001 159.232236,186.666331 C157.797381,188.520088 158.045351,189.148439 155.965292,191.215858 C151.010105,196.142757 152.247548,194.748227 147.471718,198.371477 C144.503301,200.623671 142.98599,203.622783 139.459038,205.967063 L130.405124,212.534656 C124.214903,216.611114 118.093896,221.166659 112.930463,226.388474 C110.949713,228.392095 106.996036,232.730968 105.011073,234.114665 C97.9054087,239.069249 81.6188368,247.080726 77.7861358,252.844222 C56.1098281,253.775313 59.1336174,251.770488 44.8536763,251.642892 C40.2782691,251.601965 40.0609945,250.291094 35.1106229,250.279057 C31.7461759,250.271233 27.9158823,250.664253 25.0846911,249.814414 C15.7527142,247.013918 9.87787204,252.530648 3.69202435e-14,247.752411 C1.2879994,252.832787 11.1556397,250.731662 15.5763666,252.117165 C17.8779132,252.837602 17.7093899,252.548103 20.1397364,252.733478 C23.3103817,252.974828 22.1836831,253.0946 24.4322653,253.728368 L39.8425161,258.565588 C43.1720547,259.688675 44.8711305,259.012174 48.1874281,259.998036 C54.7321502,261.945081 62.0147637,258.17979 65.3075883,263.275814 C62.9392343,267.373337 58.5979541,268.268316 57.0258725,273.65745 L57.0246688,273.65745 Z" id="Path"></path>
                <path d="M204.916492,283.798339 C205.357662,282.882896 207.961948,275.977053 208.297189,274.846141 C210.40373,267.743486 224.737839,243.504421 230.743889,225.581969 C231.442659,223.495892 231.454094,223.352647 231.969294,220.963228 C232.482688,218.581632 232.912423,218.806731 233.121873,216.337263 C233.796568,208.376946 232.758344,201.391655 235.118874,194.152377 C237.659362,186.35998 238.806524,176.241361 242.78548,165.919911 C247.006988,154.970111 252.428021,144.038968 258.614029,134.174939 L281.714359,85.58787 C282.470908,83.3543346 288.208524,72.565835 291.197405,65.0749749 L307.792133,28.2544425 C309.872794,21.8186586 312.061189,15.8102016 314.044949,10.1839313 C310.512581,11.0030748 311.002502,11.4827643 307.583887,17.019958 L300.460769,28.793717 C299.358145,30.9592412 299.16976,30.7738656 298.13274,32.3020107 L286.058648,56.0884707 C282.591282,64.9166834 261.541519,103.640325 259.758784,108.605142 C258.786766,111.312348 258.458145,113.772186 256.241462,116.847134 C253.92848,120.056299 243.90315,141.765709 242.657883,145.593595 C241.848972,148.080518 242.201667,147.577957 241.04006,149.865661 C239.927204,152.056463 240.278696,151.626729 239.486034,154.197311 C238.501979,157.386614 237.442088,160.412811 236.3834,163.470907 C233.748418,171.08515 235.180264,168.665637 234.027686,172.83719 C227.37884,196.889676 239.458348,193.895379 223.493776,222.927126 C220.83472,227.761939 222.025818,227.213636 220.054096,231.222685 C216.347787,238.759287 206.912289,256.144269 204.580649,263.955925 C203.093431,268.936992 200.193025,279.139873 200.906841,284.045707 L204.917695,283.799542 L204.916492,283.798339 Z" id="Path"></path>
                <path d="M379.871349,121.31902 C379.321842,120.674418 379.551154,120.995214 379.0829,120.032224 L377.510819,115.458021 C376.914969,116.208551 375.29233,114.027378 376.629683,119.453828 C377.527069,123.092727 377.614942,119.661473 378.000138,123.838443 C378.612239,130.480668 379.211098,129.369618 379.285128,132.913422 C379.389252,137.904119 380.403401,137.565868 380.603221,141.35704 C381.008881,149.054341 380.633916,163.333079 378.427465,169.921737 C376.275182,176.350901 375.747945,177.914556 374.962506,184.769241 C374.942644,184.938968 374.909542,185.121936 374.8963,185.278422 L374.922783,186.683184 C375.086491,186.759019 375.367564,186.626006 375.450622,186.804159 L376.45153,186.876986 C376.566487,186.851105 376.790984,186.818604 376.911357,186.771658 C377.506004,186.541143 378.002546,185.955524 378.323342,185.49991 C381.416346,181.103859 384.139201,170.861857 384.304715,165.525687 C384.455784,160.632493 385.507851,160.642725 385.657716,156.427837 C386.159073,142.35193 384.41907,140.981474 384.33541,136.862284 C384.1711,128.799046 380.961935,129.94681 387.222575,121.370781 L427.532743,140.050985 C433.012759,142.913473 451.277674,155.50457 453.540099,156.466959 C457.832026,158.293631 458.178101,154.550608 456.519952,152.128086 L453.845849,148.258671 C452.167838,145.806657 452.221405,147.007987 450.036019,145.506926 C450.014351,145.49188 441.975189,138.005233 438.679355,136.008834 C427.321487,129.126463 415.462263,121.688567 401.550666,118.422827 C398.163348,117.62836 393.270755,117.156495 391.062499,115.334036 C397.25934,109.067979 394.965618,110.216345 400.829627,104.355345 C402.674957,102.510617 404.107405,100.858487 405.992458,99.1028357 C408.611189,96.6634612 409.315978,97.3231094 411.932302,94.5978472 C416.879664,89.4458496 416.936842,90.421479 422.940484,84.7675228 L458.243103,56.2323173 C464.459806,52.2196575 461.027348,53.8964642 464.004794,51.5497775 C466.923256,49.2494346 464.852225,52.061366 469.874219,46.9653422 C471.920573,44.8882927 474.158923,44.1925323 479.55528,38.4807966 L481.535428,35.862667 C477.551658,36.8112124 462.361692,45.6255821 458.387551,48.4880705 L444.496418,57.3921187 C437.283621,61.9693315 425.600744,71.2044076 417.661492,76.8728087 L404.973494,87.6065383 C401.789608,89.5590009 401.169081,90.5478715 398.671325,93.0733133 C395.244885,96.5376706 390.503362,101.53258 387.824444,105.704134 C386.21625,108.207908 384.226472,110.509455 383.421171,113.011424 C382.165673,116.910932 382.0778,119.229933 379.87195,121.317816 L379.871349,121.31902 Z" id="Path"></path>
                <path d="M427.493622,190.845107 C429.549606,192.299824 429.536365,190.920943 432.153291,189.232098 C435.881868,186.825827 439.020615,185.897143 443.048321,184.361174 C445.44075,183.448139 446.029979,183.032247 448.62584,182.120416 C451.276471,181.190528 464.379758,174.570573 470.348492,172.604869 C474.484534,171.242238 477.953105,170.077621 482.152344,168.731241 C491.317603,165.791713 510.420922,164.495288 515.645745,163.165157 L538.933256,162.813064 C542.641972,163.041774 541.725326,163.950596 545.385892,164.118518 L559.44254,165.776666 C573.374601,169.498022 585.79898,172.958768 597.576952,182.42135 C602.814415,186.630219 605.248373,188.456891 609.074453,194.337752 C610.598987,196.680828 609.71424,196.792775 612.36788,197.936326 C612.57733,194.254092 604.7741,185.362683 601.703967,182.848677 C589.931412,173.209145 582.406847,169.522096 568.464554,164.619874 L533.145083,157.561758 C523.182949,155.641194 511.414607,156.235841 501.321266,158.051679 L498.666422,158.156405 C496.293253,157.859081 497.924318,157.900008 496.056117,158.452524 C486.735576,161.206074 483.306729,160.523555 475.361457,163.25604 C469.253692,165.35596 468.768586,166.530808 461.618985,164.589179 C457.799525,163.551557 456.89913,164.530798 453.927101,165.249429 C442.271308,168.066176 446.034193,166.500113 435.373891,172.114346 C433.044057,173.341556 431.86018,173.584109 429.975127,175.22661 C428.403046,176.595861 427.305237,177.992197 425.766258,179.475202 C423.470128,181.686468 419.415338,186.104788 418.427069,188.876394 C421.536925,188.887829 435.448523,177.207962 440.935159,175.082161 C444.151547,173.835691 446.870188,173.089975 449.768789,171.936193 C448.566857,175.018363 446.598746,175.301241 444.090156,176.931704 C442.923734,177.690661 439.778969,180.182398 438.12383,181.405396 C435.660381,183.225447 435.233656,185.062953 433.030214,186.683786 C430.431946,188.595321 429.112047,188.631433 427.494224,190.846311 L427.493622,190.845107 Z" id="Path"></path>
                <path d="M331.260205,320.992632 C328.704068,317.051594 327.369123,312.041036 325.329991,307.545075 C324.069677,308.642884 324.984518,307.270623 324.555386,309.03771 C324.161763,310.657941 324.956832,311.357915 325.340223,312.45151 C327.176524,317.691983 324.472929,315.200847 330.341753,327.132898 C335.88316,338.399281 333.60328,330.694758 338.212994,338.80795 C339.627386,341.296678 339.476317,340.242806 341.938562,341.651781 C345.64788,343.774572 341.115808,343.813694 357.590163,352.081567 C364.102384,355.349715 368.091571,357.501396 375.210476,359.848083 C378.301675,360.867047 381.751587,362.025644 384.969178,363.120444 L397.860607,366.531235 C405.919632,368.68412 410.641895,369.083761 416.106864,370.451809 C423.370218,372.270656 428.972414,372.18158 433.282998,372.809329 C436.016687,373.207766 435.298056,374.031123 438.52648,374.025137 C441.775368,374.019085 440.96766,373.22522 443.753711,372.77743 C448.80941,371.964907 459.389061,374.027512 461.517871,371.462346 C459.771248,369.577293 456.932834,370.82256 453.876544,369.815031 L432.00824,366.137011 C424.103294,354.235054 427.109629,353.495357 425.627226,348.490817 C424.31756,344.07009 425.387081,341.001161 424.241122,337.483237 L421.581464,328.719424 C418.830321,330.027285 420.339808,329.63908 419.665715,332.919867 L418.236277,338.109783 C416.389743,345.984635 416.179691,356.34641 423.707265,362.164074 C425.552595,363.590503 423.810184,362.33681 425.774082,363.323875 C425.908299,363.391285 426.10812,363.478556 426.230901,363.539946 L426.04071,364.895957 C425.839084,364.943505 425.679589,364.979015 425.460509,365.015127 C425.421387,365.021748 422.926641,365.103 422.870667,365.099389 C419.468904,364.886327 420.809868,364.557105 418.643742,363.996163 C416.764105,363.509853 415.698797,363.841483 413.814346,363.585087 L401.518767,360.888112 C399.101661,360.439118 396.600896,359.068662 394.105548,358.560083 C383.583676,356.413819 361.515552,347.533845 351.917548,340.739348 C350.464637,339.710754 350.309355,339.711356 348.75232,338.67253 L340.528384,331.953266 C334.036626,325.382663 336.058905,328.390202 331.260807,320.993233 L331.260205,320.992632 Z" id="Path"></path>
                <path d="M113.510665,318.671825 C115.936197,323.41395 125.895923,318.504506 128.267888,316.695288 C130.267898,315.170152 129.710568,315.785864 131.501729,314.716343 C133.1346,313.742519 136.998598,308.158981 137.610699,307.084646 C143.597488,296.583237 148.957131,274.474186 150.832554,272.136527 C154.552706,267.49672 160.802512,261.76753 165.77094,258.386231 C167.9804,256.883364 167.930445,255.676015 171.021042,253.886057 C173.965385,252.181565 178.130317,247.495413 180.913961,244.845385 C185.696411,240.292849 181.648843,241.276302 185.110792,239.689776 C185.163757,241.835438 185.280519,246.287463 184.980789,248.271824 C184.50471,251.428627 183.749967,250.164702 183.726494,254.763582 C183.660288,267.862054 182.529377,263.242711 182.437291,269.107321 C182.353029,274.453722 182.987399,278.895515 184.974168,282.846784 C186.77496,286.426098 189.862547,288.100497 195.340758,287.919335 C194.559532,286.559713 191.278143,285.091153 189.665134,282.682474 C184.767727,275.370369 189.483972,263.903563 190.031672,259.917385 C190.2983,257.982377 189.963661,257.063323 190.460203,255.032617 C191.663941,250.111737 191.239021,250.092478 191.386479,244.982611 C191.508659,240.752075 192.779204,240.573319 192.75874,235.270855 C192.73286,228.553396 193.053656,220.516039 192.62332,213.98516 C189.949818,214.656846 191.700655,213.486211 188.466211,221.105871 C185.760811,227.480866 187.908279,228.370428 180.031019,236.142963 L162.836829,253.473777 C159.921376,255.836714 158.661665,255.347395 156.319191,258.707629 L146.757902,271.969208 C145.66551,273.431147 145.090123,273.519622 144.060326,275.129621 C138.402758,283.974686 137.076239,296.721667 132.680189,304.155952 C124.033139,318.781967 114.619307,318.039261 113.510665,318.671825 L113.510665,318.671825 Z" id="Path"></path>
                <path d="M330.581297,95.6986653 C333.86389,94.8416041 345.542553,88.5328145 347.608167,87.0010582 L369.542677,71.7599325 C370.74822,70.5261013 370.91253,70.0656717 372.638088,69.0316609 C377.702815,65.9946306 377.645637,64.5158387 382.519572,59.9867754 C385.53674,57.1832702 384.048319,59.9909885 389.41398,54.4911107 C397.438697,46.2671743 407.027071,38.5500115 413.579617,29.1211337 C416.498079,24.9212926 418.990418,25.1000477 425.320875,16.0954874 C426.635959,14.2248789 437.815071,5.51403064 433.14818,0.770702009 C430.950757,-1.46223153 426.013024,1.71924736 424.793638,3.21007658 L414.391538,17.5550194 C408.428823,23.6934801 412.596163,19.2474747 408.792352,24.3525266 L384.030263,49.0809113 C380.036863,52.0204389 382.373919,49.2542496 377.199051,54.6524115 C371.725053,60.360536 374.032619,57.431842 370.37446,60.2293286 C365.836368,63.7003064 368.109025,63.9398502 360.731316,68.8113769 C359.236274,69.7984419 358.553755,70.6500863 357.343998,71.9567437 C354.721656,74.7897405 352.873918,74.9606712 350.465841,77.4614364 C344.931656,83.2086824 346.724624,80.2011436 343.612962,82.9974264 C339.597894,86.6062322 338.109473,89.5192776 334.293022,91.8864279 C333.881946,92.1416203 332.678208,92.8566405 332.361625,93.1611861 C330.500646,94.9517461 331.685124,93.3176721 330.5825,95.6986653 L330.581297,95.6986653 Z" id="Path"></path>
                <path d="M476.710246,203.574634 C469.80681,197.398857 467.721334,193.716022 463.419175,185.06837 C461.17601,187.233292 463.032173,186.721102 464.18415,192.130097 C464.79926,195.019068 465.245847,195.638993 466.553106,198.079571 C471.158005,206.67486 479.316338,213.518711 481.63895,217.542807 C482.901671,219.7306 484.387083,220.022507 485.717213,221.91719 C489.888165,227.860043 498.792213,244.217636 500.270403,250.439154 C502.706768,260.698009 501.076907,258.9881 502.813901,265.456986 C504.479272,271.661653 500.225865,275.828391 502.394398,280.167866 C505.443466,279.927118 505.540367,278.235265 506.754336,274.830492 C507.590934,272.485611 508.326418,270.494629 509.046855,267.989651 C510.364346,263.412438 510.036929,255.444898 508.730272,251.074728 C508.322807,249.711495 508.157895,248.128579 507.76367,246.81169 C506.115753,241.311813 503.980323,235.532066 501.020933,230.778505 L493.017281,219.847965 C491.873128,218.741128 485.907404,209.645685 479.888715,205.604738 C478.446637,204.636932 478.362978,205.05162 476.710847,203.57343 L476.710246,203.574634 Z" id="Path"></path>
                <path d="M85.2932463,303.48246 C95.8909535,287.401728 90.3706122,294.299145 95.930075,283.679169 L100.701691,272.810018 C101.539493,271.136221 102.349007,269.537056 103.283107,267.574963 L108.858219,258.170762 C114.715005,251.056672 111.106801,254.456629 119.578105,246.075003 C126.932943,238.798408 123.481225,240.978979 126.352139,237.867919 C129.162867,234.822462 130.627214,234.792369 133.311549,228.737568 C128.765032,229.97802 127.363279,232.178452 125.158633,233.371356 C117.433044,237.54953 122.804122,234.623846 118.120379,238.077971 C115.872398,239.734916 115.768877,238.555253 114.067394,241.24019 L107.794716,249.926362 L72.1658842,274.238855 C70.6214887,275.255412 69.4659004,276.537392 67.3244509,277.098334 C64.6208559,277.806734 63.0993314,277.059213 61.2672425,278.264154 C62.9669202,279.434789 71.7379554,278.940655 74.1454309,278.210588 C81.7626835,275.900013 81.2655398,274.748036 87.9926282,270.557825 C89.2288669,269.788035 89.1102987,269.703773 90.2731094,268.930372 C90.8689596,268.53374 91.4515687,268.312854 92.3417328,267.732051 L100.505482,261.817485 C100.274365,264.356168 94.3706327,276.477206 93.9800198,277.809743 C92.8467007,281.670732 83.0470717,300.5646 85.2926444,303.48246 L85.2932463,303.48246 Z" id="Path"></path>
                <path d="M116.575983,307.433128 C116.86789,307.061775 122.299756,287.739978 123.059917,285.417968 C125.433687,278.169661 128.577249,271.735683 130.24262,263.987223 C130.9125,260.870144 141.215893,245.141504 144.360056,242.18693 C146.616463,240.065944 145.759401,240.610033 147.416948,238.056906 C148.434709,236.489037 151.031171,234.408978 151.840685,232.021966 C151.912307,231.811312 152.358292,231.02166 151.946613,229.725235 C148.575546,228.922342 142.938442,233.732478 141.24719,235.806518 C140.396148,236.849557 138.609801,239.710239 137.593244,241.294358 L130.756616,252.056376 C127.055122,257.691674 131.966372,255.121092 124.656073,262.879182 C122.928709,264.711873 123.191726,265.494904 121.098426,267.788626 C117.192899,272.067914 113.238018,279.942767 110.746883,283.522081 C109.799541,284.883508 108.164866,287.356587 107.38063,288.642781 L99.6821256,298.512227 C98.1443506,300.024122 92.1563571,304.507443 89.8542087,305.380755 C91.1307726,306.501435 89.370908,305.617289 91.3269818,306.071098 C91.5954153,306.133091 92.735355,306.185453 92.9724913,306.162582 L100.279781,303.703346 L110.482663,294.329238 C112.646381,291.716526 115.904297,283.979501 118.654838,282.67164 C118.816139,291.478186 117.291003,285.213934 117.422211,295.860393 C117.47036,299.770735 115.173629,305.373532 116.575983,307.433128 L116.575983,307.433128 Z" id="Path"></path>
                <path d="M338.896115,183.733424 C341.09715,182.524872 341.351138,178.628373 342.264775,176.805914 C346.894351,167.572643 348.691531,160.086598 350.677097,150.006498 C351.099609,147.860234 351.47036,148.613172 351.731571,145.949902 C352.260614,140.563175 351.709904,125.412932 347.636455,121.129431 C341.57383,122.332567 345.644871,130.578171 343.221145,139.908944 C341.412529,146.869557 345.215739,139.393142 340.191939,148.672757 C336.666793,155.183774 338.493465,152.797364 336.900318,156.451912 L328.814812,171.150152 C321.404,186.148122 322.885801,178.792683 317.516529,183.394572 C323.721195,184.007275 323.892126,183.814075 327.190367,180.621762 C330.799173,177.127312 335.628569,170.615692 337.711035,166.329784 C340.072167,161.469693 340.107677,159.922288 342.808263,158.893092 C342.964147,163.519658 338.462168,168.423686 338.896115,183.733424 L338.896115,183.733424 Z" id="Path"></path>
                <path d="M344.21784,186.136687 C350.514592,186.664526 354.702396,177.983169 357.454742,175.041234 C363.344631,168.745084 363.555887,161.581038 367.619104,160.220815 C367.684708,167.258468 366.205916,183.939865 372.506279,186.129464 C372.594152,183.32957 371.321199,182.760202 370.396729,180.254622 C367.897167,173.479384 373.2538,156.854562 370.85776,149.084435 C369.853843,145.828926 370.262512,146.916503 369.948336,143.389552 C369.660041,140.159321 369.259798,141.721773 368.778905,138.752152 C368.109025,134.6131 367.527018,132.415074 367.268816,127.970273 C364.556795,128.630523 365.099079,128.611865 365.043707,135.536366 C365.002178,140.654058 363.935666,141.290233 363.688298,144.669125 C363.092448,152.801577 360.630202,160.587353 355.794186,167.516067 C351.73759,173.327713 343.951814,182.112592 344.21784,186.137289 L344.21784,186.136687 Z" id="Path"></path>
                <path d="M427.535151,217.732997 C428.12438,220.032738 428.268829,218.679135 429.071722,222.057425 C432.660666,237.161927 428.037109,240.631099 424.983227,253.601975 C423.928151,258.082889 423.580872,257.763898 423.581474,263.269795 C423.581474,267.074208 423.083127,270.049246 424.543862,273.328228 C426.240531,277.138058 429.634469,277.602099 431.420816,276.45614 C433.553238,275.08749 432.589646,273.07123 432.589044,267.186758 C432.588442,259.568301 432.226719,262.498801 433.703103,255.250494 C434.119596,253.20414 433.786161,250.99829 433.843338,248.896564 C433.981166,243.777068 436.489756,243.285341 434.549932,237.275078 C433.116883,232.835693 434.366964,230.78332 432.400659,225.698732 C429.988368,219.458555 431.181874,217.5729 427.535753,217.732997 L427.535151,217.732997 Z" id="Path"></path>
                <path d="M356.972645,296.513421 C356.973849,293.306061 357.511318,293.200132 357.989804,290.98706 C358.720472,287.605761 357.266357,288.075219 359.645545,279.632804 L360.450244,275.63158 C360.446632,275.371572 360.389455,275.278885 360.319036,275.115778 C359.007564,276.025202 359.111687,275.71223 357.909755,278.577728 C353.705099,288.601252 350.555519,289.428822 350.595844,306.289577 C350.607882,311.449399 350.412876,311.628154 351.594947,316.31611 C352.455619,319.728707 352.199223,321.100366 353.507084,324.823527 C354.220901,326.85664 358.959414,336.525664 363.362085,336.08329 C363.751494,326.662838 361.159847,325.202103 359.601007,316.74103 C359.089418,313.963405 358.737927,314.085584 358.408704,312.076546 C358.110779,310.257698 358.498985,308.316069 358.12703,306.466526 C357.617849,303.929649 357.170058,305.590807 356.956997,301.776162 C356.869726,300.210099 356.972043,298.136661 356.972043,296.514022 L356.972645,296.513421 Z" id="Path"></path>
                <path d="M277.610215,114.031591 L277.58614,134.88695 C277.602992,138.40367 277.618039,139.03503 280.80975,139.35703 C283.082407,134.659443 282.70022,125.281123 282.70022,120.549229 C282.700822,107.457378 280.885585,108.172398 296.690662,103.229249 L319.090416,94.4804827 C317.376294,93.3140608 314.941132,93.9875521 312.843017,94.6134957 C309.199303,95.6998691 309.013927,94.9234582 305.658508,95.3002281 C300.879669,95.8364933 285.863041,99.1533927 281.523566,102.345705 C279.265956,104.006863 277.61202,110.970486 277.610817,114.032193 L277.610215,114.031591 Z" id="Path"></path>
                <path d="M300.758694,110.776083 C301.587467,112.575671 301.901041,113.585005 302.817687,115.544088 C311.740393,134.6131 299.808945,144.238187 304.988026,149.22467 L304.076797,149.682091 C300.107472,152.032389 301.063841,155.5786 301.029535,161.617151 C300.998238,167.026748 300.904346,170.041509 305.973888,171.794151 C306.35788,166.804057 307.166792,158.973141 304.729223,155.090484 C308.649195,147.944495 308.353677,145.082609 310.823747,136.840014 C311.628446,134.153874 311.125885,133.30584 312.094894,130.270616 C313.40757,126.159249 312.0967,127.833047 311.473164,124.368088 C310.752727,120.367465 311.996789,121.80232 309.921546,118.173051 C306.923035,112.928968 308.262193,112.869984 300.758694,110.776083 L300.758694,110.776083 Z" id="Path"></path>
                <path d="M410.428833,257.410601 C410.430037,253.872214 410.096602,251.970309 411.051768,248.839387 L413.450215,233.66567 C414.165235,231.509174 415.41953,229.850424 412.45653,228.360798 C412.002119,229.17934 411.888967,230.478775 411.315988,232.034606 L407.504954,243.347333 C406.449276,246.224868 405.025255,247.604352 404.14773,250.395218 C402.522082,255.566475 401.560295,266.364003 403.970178,271.080849 C405.382765,273.845233 407.404442,276.976757 411.40687,275.951774 C412.363842,272.339959 410.661757,273.287301 410.388508,269.175934 L410.42763,257.411203 L410.428833,257.410601 Z" id="Path"></path>
                <path d="M309.130088,173.018955 C315.772313,173.929582 315.642911,167.622598 317.953486,162.899131 C319.721175,159.286112 321.760908,152.45791 323.047704,148.314645 C325.191561,141.410005 326.333306,143.309503 328.533137,134.428326 C329.664049,129.862549 330.383282,123.210694 327.733253,118.741817 C326.051632,120.827895 328.402531,122.726791 326.277934,126.885103 C325.026047,129.33471 324.492189,130.960357 323.679666,133.406954 C318.503594,148.994756 321.794011,142.926714 313.672994,159.951779 C311.842109,163.790499 308.466829,168.550078 309.129486,173.019556 L309.130088,173.018955 Z" id="Path"></path>
                <path d="M445.721221,346.670164 C444.253864,343.74147 442.967069,341.16848 441.350449,338.003854 C439.893324,335.150393 438.785284,331.350193 435.954694,329.754639 C435.203562,333.480809 435.078975,331.967109 436.150302,335.370075 C438.094338,341.544046 434.661278,343.86726 442.715488,356.163441 C444.906892,359.509231 447.297515,365.380461 453.307778,364.702155 C453.509404,362.308523 451.309573,357.928121 449.972221,355.491154 C448.429029,352.678019 447.151863,349.523624 445.721823,346.670164 L445.721221,346.670164 Z" id="Path"></path>
                <path d="M364.922126,312.154789 C364.920926,316.600193 365.292279,320.609241 367.632345,323.107599 C368.444868,323.974892 370.448489,325.250252 372.405165,324.219853 C374.283598,323.230982 374.004331,325.215946 372.668182,319.322445 C371.62093,314.703704 368.855342,309.541474 369.91403,302.36178 C370.231215,300.208895 370.536362,300.496589 370.74822,299.700918 C371.208048,297.974156 370.827667,300.77706 370.946837,298.296758 C370.951652,298.19444 370.866788,298.048788 370.865585,297.810448 C370.864381,297.56308 370.814426,297.46979 370.747618,297.313304 L369.945929,298.14268 C366.627224,302.2071 364.923935,306.860148 364.922731,312.153585 L364.922126,312.154789 Z" id="Path"></path>
                <path d="M289.259387,138.79669 C296.372875,141.889694 302.265773,130.770769 300.674432,124.76171 C299.996126,122.199554 300.081591,124.902547 299.577225,121.146885 C299.160732,118.04064 300.542623,118.708113 298.405988,117.159504 C297.343088,117.994898 295.077653,126.545649 294.700282,128.477648 C293.656641,133.82104 289.854033,135.349185 289.259387,138.79669 L289.259387,138.79669 Z" id="Path"></path>
            </g>
        </g>
    </g>
</svg>