<?xml version="1.0" encoding="UTF-8"?>
<svg id="Calque_1" data-name="Calque 1" xmlns="http://www.w3.org/2000/svg" viewBox="0 0 148.66 283">
  <defs>
    <style>
      .cls-1 {
        fill: #fff;
      }
    </style>
  </defs>
  <path class="cls-1" d="M75.39,.14c10.81,0,21.63-.35,32.41,.07,25.14,.97,41.4,18.04,40.83,42.41-.6,25.98-16.72,42.45-41.93,42.85q-21.76,.35-21.76,21.97c0,3.75-.61,7.61,.11,11.21,2.43,12.13-3.87,13.42-13.8,13.04-7.19-.27-9.27-2.42-8.88-9.37,.55-9.96-.15-19.98,.25-29.95,.22-5.47-1.49-7.57-7-6.98-3.7,.4-7.48,.09-11.23,.07C16.88,85.35,.23,69.33,0,42.77-.23,16.24,16.1,.43,44.21,.11c10.39-.12,20.79-.02,31.18-.02v.04Zm9.56,42.79q0,23.36,19.1,22.1c14.19-.94,23.76-10.99,22.88-24.03-1.01-14.91-10.97-21.31-33.31-20.47-12.88,.49-8.88,12.49-8.61,19.96,.02,.7-.05,1.62-.05,2.45Zm-22.43-.47q0-23.49-20.5-21.9c-13,1-21.35,10.55-20.44,23.38,1.05,14.92,11.32,21.4,32.09,21.17,12.07-.11,9.07-13.11,8.78-18.95-.06-1.11,.07-2.46,.07-3.71Z"/>
  <path class="cls-1" d="M74.35,150.34c19.95,0,39.93,.57,59.85-.25,9.37-.39,9.54,3.93,9.72,10.99,.2,7.71-1.34,11.3-10.15,10.81-13.68-.76-27.43,.06-41.14-.32-5.84-.16-7.61,1.38-7.85,7.54-1.13,28.68-1.37,28.67,27.69,28.67,3.74,0,7.48,0,11.22,0,12.23,.02,15.39,4.54,12.62,16.48-1.19,5.12-4.53,3.94-7.57,3.96-12.05,.11-24.12,.33-36.16-.08-5.85-.2-7.93,1.46-7.74,7.54,.42,13.29-.38,26.63,.3,39.89,.49,9.54-5.81,7.25-10.6,6.96-4.88-.29-12.44,3.56-12.06-7.02,.46-12.87-.31-25.79,.27-38.65,.33-7.34-2.33-9.1-9.16-8.76-10.78,.53-21.67-.55-32.4,.36-8.94,.76-9.14-3.75-8.81-10.26,.29-5.76-1.31-11.48,8.38-10.67,11.56,.97,23.27-.03,34.9,.34,5.43,.18,6.8-1.51,7.1-6.96,1.57-29.26,1.76-29.25-27.22-29.25-6.65,0-13.37-.6-19.94,.15-8.99,1.03-10.79-2.56-10.97-11.03-.19-9.02,2.57-10.97,11.11-10.68,19.51,.67,39.07,.21,58.61,.21Z"/>
</svg>