<?xml version="1.0" encoding="UTF-8"?>
<svg id="Calque_1" data-name="Calque 1" xmlns="http://www.w3.org/2000/svg" viewBox="0 0 500.6 105.45">
  <defs>
    <style>
      .cls-1 {
        fill: #002369;
      }
    </style>
  </defs>
  <path class="cls-1" d="M36.91,.86c3.65,0,6.78,.62,9.38,1.85,2.6,1.23,4.59,2.99,5.98,5.28,1.39,2.29,2.08,5.06,2.08,8.32,0,1.89-.3,3.79-.89,5.68-.59,1.89-1.52,3.61-2.77,5.15-1.25,1.54-2.93,2.77-5.02,3.7-2.09,.92-4.65,1.39-7.69,1.39h-6.93v16.7h-7.72V.86h13.6Zm1.06,23.97c1.67,0,3.08-.29,4.23-.86,1.14-.57,2.04-1.3,2.67-2.18,.64-.88,1.1-1.8,1.39-2.77,.29-.97,.43-1.83,.43-2.57s-.13-1.59-.4-2.54c-.26-.95-.7-1.85-1.32-2.71-.62-.86-1.48-1.56-2.58-2.11-1.1-.55-2.51-.82-4.23-.82h-7.13V24.82h6.93Z"/>
  <path class="cls-1" d="M31.03,.86V48.92h-7.72v-16.7h-6.93c-3.04,0-5.6-.46-7.69-1.39-2.09-.93-3.76-2.16-5.02-3.7-1.25-1.54-2.18-3.26-2.77-5.15C.3,20.09,0,18.2,0,16.31c0-3.26,.69-6.03,2.08-8.32,1.39-2.29,3.38-4.05,5.98-5.28,2.6-1.23,5.72-1.85,9.38-1.85h13.6Zm-7.72,23.97V8.25h-7.13c-1.72,0-3.12,.27-4.23,.82-1.1,.55-1.96,1.25-2.58,2.11-.62,.86-1.06,1.76-1.32,2.71-.26,.95-.4,1.79-.4,2.54,0,.75,.14,1.61,.43,2.57,.29,.97,.75,1.89,1.39,2.77,.64,.88,1.53,1.61,2.67,2.18,1.15,.57,2.55,.86,4.23,.86h6.93Z"/>
  <path class="cls-1" d="M81.8,2.05c1.76,0,3.51,.25,5.25,.76,1.74,.51,3.32,1.3,4.75,2.38,1.43,1.08,2.59,2.45,3.47,4.13,.88,1.67,1.32,3.68,1.32,6.01,0,1.76-.26,3.47-.79,5.12-.53,1.65-1.39,3.14-2.58,4.46s-2.73,2.38-4.62,3.17c-1.89,.79-4.23,1.19-7,1.19h-7.26v19.68h-3.24V2.05h10.7Zm-.4,24.1c2.33,0,4.27-.33,5.81-.99,1.54-.66,2.75-1.52,3.63-2.57,.88-1.06,1.51-2.21,1.88-3.47,.37-1.25,.56-2.48,.56-3.66,0-1.41-.25-2.73-.76-3.96-.51-1.23-1.24-2.32-2.21-3.27-.97-.95-2.14-1.69-3.5-2.25-1.37-.55-2.88-.83-4.56-.83h-7.92V26.15h7.06Zm6.73,1.45l13.01,21.33h-3.76l-13.07-21.26,3.83-.07Z"/>
  <path class="cls-1" d="M116.07,25.55c0-3.3,.62-6.39,1.85-9.28,1.23-2.88,2.95-5.44,5.15-7.66,2.2-2.22,4.74-3.96,7.63-5.22,2.88-1.25,5.98-1.88,9.28-1.88s6.4,.63,9.31,1.88c2.91,1.25,5.46,2.99,7.66,5.22,2.2,2.22,3.93,4.78,5.18,7.66,1.25,2.88,1.88,5.97,1.88,9.28s-.63,6.39-1.88,9.28c-1.25,2.88-2.98,5.43-5.18,7.63-2.2,2.2-4.75,3.92-7.66,5.15-2.91,1.23-6.01,1.85-9.31,1.85s-6.39-.59-9.28-1.78c-2.88-1.19-5.43-2.86-7.63-5.02-2.2-2.16-3.92-4.69-5.15-7.59-1.23-2.91-1.85-6.07-1.85-9.51Zm3.3,.07c0,2.86,.53,5.55,1.58,8.06,1.06,2.51,2.53,4.71,4.42,6.6,1.89,1.89,4.08,3.38,6.57,4.46,2.49,1.08,5.14,1.62,7.96,1.62s5.61-.54,8.12-1.62c2.51-1.08,4.71-2.56,6.6-4.46,1.89-1.89,3.38-4.09,4.46-6.6,1.08-2.51,1.62-5.22,1.62-8.12s-.54-5.56-1.62-8.09c-1.08-2.53-2.56-4.75-4.46-6.67-1.89-1.91-4.09-3.42-6.6-4.52-2.51-1.1-5.19-1.65-8.06-1.65s-5.61,.56-8.12,1.68c-2.51,1.12-4.7,2.65-6.57,4.59-1.87,1.94-3.32,4.17-4.36,6.7-1.04,2.53-1.55,5.21-1.55,8.02Z"/>
  <path class="cls-1" d="M216.23,45.82c-1.01,.62-2.18,1.21-3.5,1.78-1.32,.57-2.77,1.02-4.36,1.35-1.59,.33-3.3,.5-5.15,.5-3.57,0-6.8-.63-9.71-1.88-2.91-1.25-5.39-2.97-7.46-5.15-2.07-2.18-3.66-4.69-4.79-7.53-1.12-2.84-1.68-5.86-1.68-9.08,0-3.43,.59-6.62,1.78-9.57s2.86-5.52,5.02-7.73c2.16-2.2,4.67-3.92,7.53-5.15s5.96-1.85,9.31-1.85c2.46,0,4.78,.33,6.93,.99,2.16,.66,4.11,1.52,5.88,2.58l-1.39,2.97c-1.54-.97-3.28-1.78-5.22-2.44-1.94-.66-3.98-.99-6.14-.99-2.77,0-5.39,.54-7.86,1.62-2.47,1.08-4.63,2.57-6.5,4.49-1.87,1.91-3.33,4.15-4.39,6.7-1.06,2.55-1.58,5.3-1.58,8.25s.47,5.48,1.42,7.99c.95,2.51,2.31,4.71,4.09,6.6,1.78,1.89,3.93,3.38,6.44,4.46,2.51,1.08,5.3,1.62,8.39,1.62,2.29,0,4.39-.32,6.31-.96,1.91-.64,3.62-1.44,5.12-2.41l1.52,2.84Z"/>
  <path class="cls-1" d="M237.76,33.08c0,2.73,.56,5.08,1.68,7.06,1.12,1.98,2.65,3.51,4.59,4.59,1.94,1.08,4.14,1.62,6.6,1.62s4.74-.54,6.7-1.62c1.96-1.08,3.5-2.61,4.62-4.59,1.12-1.98,1.68-4.34,1.68-7.06V2.05h3.17v31.23c0,3.39-.72,6.3-2.15,8.72-1.43,2.42-3.37,4.27-5.81,5.55-2.44,1.28-5.18,1.91-8.22,1.91s-5.78-.64-8.22-1.91c-2.44-1.28-4.37-3.13-5.78-5.55-1.41-2.42-2.11-5.33-2.11-8.72V2.05h3.24v31.03Z"/>
  <path class="cls-1" d="M298.76,2.05c1.76,0,3.51,.25,5.25,.76,1.74,.51,3.32,1.3,4.75,2.38,1.43,1.08,2.59,2.45,3.47,4.13,.88,1.67,1.32,3.68,1.32,6.01,0,1.76-.26,3.47-.79,5.12-.53,1.65-1.39,3.14-2.58,4.46s-2.73,2.38-4.62,3.17c-1.89,.79-4.23,1.19-7,1.19h-7.26v19.68h-3.24V2.05h10.7Zm-.4,24.1c2.33,0,4.27-.33,5.81-.99,1.54-.66,2.75-1.52,3.63-2.57,.88-1.06,1.51-2.21,1.88-3.47,.37-1.25,.56-2.48,.56-3.66,0-1.41-.25-2.73-.76-3.96-.51-1.23-1.24-2.32-2.21-3.27-.97-.95-2.14-1.69-3.5-2.25-1.37-.55-2.88-.83-4.56-.83h-7.92V26.15h7.06Zm6.73,1.45l13.01,21.33h-3.76l-13.07-21.26,3.83-.07Z"/>
  <path class="cls-1" d="M332.37,48.92L352.18,0h.26l19.81,48.92h-3.63l-17.23-43.77,2.25-1.25-18.03,45.03h-3.24Zm9.57-18.55h20.8l.92,3.04h-22.51l.79-3.04Z"/>
  <path class="cls-1" d="M382.42,2.05h30.7v3.1h-13.8V48.92h-3.24V5.15h-13.67V2.05Z"/>
  <path class="cls-1" d="M430.88,2.05h3.24V48.92h-3.24V2.05Z"/>
  <path class="cls-1" d="M452.67,25.55c0-3.3,.62-6.39,1.85-9.28,1.23-2.88,2.95-5.44,5.15-7.66,2.2-2.22,4.74-3.96,7.63-5.22,2.88-1.25,5.98-1.88,9.28-1.88s6.4,.63,9.31,1.88c2.91,1.25,5.46,2.99,7.66,5.22,2.2,2.22,3.93,4.78,5.18,7.66,1.25,2.88,1.88,5.97,1.88,9.28s-.63,6.39-1.88,9.28c-1.25,2.88-2.98,5.43-5.18,7.63-2.2,2.2-4.75,3.92-7.66,5.15-2.91,1.23-6.01,1.85-9.31,1.85s-6.39-.59-9.28-1.78c-2.88-1.19-5.43-2.86-7.63-5.02-2.2-2.16-3.92-4.69-5.15-7.59-1.23-2.91-1.85-6.07-1.85-9.51Zm3.3,.07c0,2.86,.53,5.55,1.58,8.06,1.06,2.51,2.53,4.71,4.42,6.6,1.89,1.89,4.08,3.38,6.57,4.46,2.49,1.08,5.14,1.62,7.96,1.62s5.61-.54,8.12-1.62c2.51-1.08,4.71-2.56,6.6-4.46,1.89-1.89,3.38-4.09,4.46-6.6,1.08-2.51,1.62-5.22,1.62-8.12s-.54-5.56-1.62-8.09c-1.08-2.53-2.56-4.75-4.46-6.67-1.89-1.91-4.09-3.42-6.6-4.52-2.51-1.1-5.19-1.65-8.06-1.65s-5.61,.56-8.12,1.68c-2.51,1.12-4.7,2.65-6.57,4.59-1.87,1.94-3.32,4.17-4.36,6.7-1.04,2.53-1.55,5.21-1.55,8.02Z"/>
  <path class="cls-1" d="M23.31,56.27h29.18v7.4H31.03v13.53h18.69v7.33H31.03v19.81h-7.72V56.27Z"/>
  <path class="cls-1" d="M31.09,104.33h-7.72v-19.81H4.68v-7.33H23.36v-13.53H1.9v-7.4H31.09v48.07Z"/>
  <path class="cls-1" d="M69.92,57.45h3.24v46.88h-3.24V57.45Z"/>
  <path class="cls-1" d="M133.9,105.45l-36.97-41.66,.86-.66,.07,41.2h-3.17V56.46h.2l36.97,41.99-.86,.26-.07-41.27h3.1v48h-.13Z"/>
  <path class="cls-1" d="M151.46,104.33l19.81-48.92h.26l19.81,48.92h-3.63l-17.23-43.77,2.25-1.25-18.03,45.03h-3.24Zm9.57-18.55h20.8l.92,3.04h-22.51l.79-3.04Z"/>
  <path class="cls-1" d="M247.99,105.45l-36.97-41.66,.86-.66,.07,41.2h-3.17V56.46h.2l36.97,41.99-.86,.26-.07-41.27h3.1v48h-.13Z"/>
  <path class="cls-1" d="M303.32,101.23c-1.01,.62-2.18,1.21-3.5,1.78-1.32,.57-2.77,1.02-4.36,1.35-1.59,.33-3.3,.5-5.15,.5-3.57,0-6.8-.63-9.71-1.88-2.91-1.25-5.39-2.97-7.46-5.15-2.07-2.18-3.66-4.69-4.79-7.53-1.12-2.84-1.68-5.86-1.68-9.08,0-3.43,.59-6.62,1.78-9.57s2.86-5.52,5.02-7.73c2.16-2.2,4.67-3.92,7.53-5.15s5.96-1.85,9.31-1.85c2.46,0,4.78,.33,6.93,.99,2.16,.66,4.11,1.52,5.88,2.58l-1.39,2.97c-1.54-.97-3.28-1.78-5.22-2.44-1.94-.66-3.98-.99-6.14-.99-2.77,0-5.39,.54-7.86,1.62-2.47,1.08-4.63,2.57-6.5,4.49-1.87,1.91-3.33,4.15-4.39,6.7-1.06,2.55-1.58,5.3-1.58,8.25s.47,5.48,1.42,7.99c.95,2.51,2.31,4.71,4.09,6.6,1.78,1.89,3.93,3.38,6.44,4.46,2.51,1.08,5.3,1.62,8.39,1.62,2.29,0,4.39-.32,6.31-.96,1.91-.64,3.62-1.44,5.12-2.41l1.52,2.84Z"/>
  <path class="cls-1" d="M321.87,57.86h28.92v3.1h-25.68v18.62h23.11v3.1h-23.11v18.95h26.61v3.1h-29.84V57.86Z"/>
  <path class="cls-1" d="M394.3,63.01c-1.36-.66-3.04-1.28-5.02-1.85-1.98-.57-3.96-.86-5.94-.86-3.08,0-5.55,.77-7.4,2.31-1.85,1.54-2.77,3.48-2.77,5.81,0,1.76,.53,3.22,1.59,4.39,1.06,1.17,2.44,2.16,4.16,2.97,1.72,.81,3.54,1.6,5.48,2.34,1.54,.57,3.07,1.21,4.59,1.91,1.52,.7,2.89,1.56,4.13,2.58,1.23,1.01,2.21,2.27,2.94,3.76,.73,1.5,1.09,3.35,1.09,5.55,0,2.6-.62,4.9-1.85,6.9-1.23,2-2.95,3.56-5.15,4.65-2.2,1.1-4.75,1.65-7.66,1.65-2.33,0-4.46-.29-6.37-.86-1.91-.57-3.59-1.24-5.02-2.01s-2.56-1.42-3.4-1.95l1.52-2.64c.97,.7,2.15,1.41,3.53,2.11,1.39,.7,2.89,1.3,4.52,1.78,1.63,.48,3.26,.73,4.89,.73,1.89,0,3.73-.37,5.51-1.12,1.78-.75,3.26-1.88,4.42-3.4,1.17-1.52,1.75-3.44,1.75-5.78s-.55-4.06-1.65-5.45c-1.1-1.39-2.51-2.52-4.23-3.4-1.72-.88-3.54-1.67-5.48-2.38-1.5-.57-2.99-1.18-4.49-1.82-1.5-.64-2.86-1.41-4.09-2.31-1.23-.9-2.21-1.99-2.94-3.27-.73-1.28-1.09-2.82-1.09-4.62,0-2.25,.57-4.2,1.72-5.88,1.14-1.67,2.69-2.98,4.65-3.93,1.96-.95,4.19-1.44,6.7-1.49,2.2,0,4.43,.29,6.7,.86s4.24,1.3,5.91,2.18l-1.26,2.51Z"/>
</svg>